# xmcd CD database file generated by OrangeCD 5.2
#
# Track frame offsets:
#	200
#	14893
#	26173
#	37529
#	51886
#	68006
#	82261
#	97081
#	116702
#	130587
#	140519
#	154419
#	164480
#	176430
#
# Disc length: 2563 seconds
#
# Revision: 1
# Processed by: cddbd v1.5.1PL0 Copyright (c) Steve Scherf et al.
# Submitted via: OrangeCD 5.2
#
DISCID=c20a010e
DTITLE=Dixie aces - Cast Off The Line
DYEAR=1995
DGENRE=Country
TTITLE0=Bury Me
TTITLE1=Whole Lotta Shakin' Goin' On
TTITLE2=Help Me Make It Through The Night
TTITLE3=Don't Leave Her Too Long
TTITLE4=A Good Year For The Roses
TTITLE5=Heart Is Right
TTITLE6=This One's Gonna Hurt You
TTITLE7=The Cold Hard Truth
TTITLE8=There's A Guy
TTITLE9=Walk On By
TTITLE10=Somewhere Between
TTITLE11=I'm Feeling Sorry
TTITLE12=One Night
TTITLE13=Cast Off The Line
EXTD=
EXTT0=
EXTT1=
EXTT2=
EXTT3=
EXTT4=
EXTT5=
EXTT6=
EXTT7=
EXTT8=
EXTT9=
EXTT10=
EXTT11=
EXTT12=
EXTT13=
PLAYORDER=
